<svg width="16" height="16" viewBox="0 0 16 16" fill="none" xmlns="http://www.w3.org/2000/svg">
<path fill-rule="evenodd" clip-rule="evenodd" d="M13.149 4.2141C13.2902 4.35531 13.3696 4.54678 13.3696 4.74643C13.3696 4.94609 13.2902 5.13757 13.149 5.27876L7.12555 11.3023C6.98436 11.4435 6.79287 11.5227 6.59322 11.5227C6.39357 11.5227 6.20209 11.4435 6.06089 11.3023L3.04913 8.29053C2.91197 8.14852 2.83608 7.95833 2.8378 7.76091C2.83951 7.5635 2.9187 7.37464 3.0583 7.23505C3.1979 7.09544 3.38675 7.01626 3.58417 7.01454C3.78158 7.01282 3.97178 7.08872 4.11379 7.22587L6.59322 9.70531L12.0844 4.2141C12.2256 4.07296 12.4171 3.99365 12.6167 3.99365C12.8164 3.99365 13.0079 4.07296 13.149 4.2141Z" fill="black"/>
</svg>
