<svg width="16" height="16" viewBox="0 0 16 16" fill="none" xmlns="http://www.w3.org/2000/svg">
<path fill-rule="evenodd" clip-rule="evenodd" d="M13.1492 4.2141C13.2903 4.35531 13.3697 4.54678 13.3697 4.74643C13.3697 4.94609 13.2903 5.13757 13.1492 5.27876L7.12567 11.3023C6.98448 11.4435 6.793 11.5227 6.59334 11.5227C6.39369 11.5227 6.20221 11.4435 6.06102 11.3023L3.04925 8.29053C2.91209 8.14852 2.83621 7.95833 2.83792 7.76091C2.83963 7.5635 2.91882 7.37464 3.05842 7.23505C3.19802 7.09544 3.38687 7.01626 3.58429 7.01454C3.7817 7.01282 3.97191 7.08872 4.11391 7.22587L6.59334 9.70531L12.0845 4.2141C12.2258 4.07296 12.4172 3.99365 12.6168 3.99365C12.8165 3.99365 13.008 4.07296 13.1492 4.2141Z" fill="black"/>
</svg>
