<svg width="16" height="16" viewBox="0 0 16 16" fill="none" xmlns="http://www.w3.org/2000/svg">
<path fill-rule="evenodd" clip-rule="evenodd" d="M5.01359 2.76399C5.52819 2.7229 6.01672 2.52049 6.40959 2.18559C6.85332 1.80766 7.41713 1.6001 7.99999 1.6001C8.58284 1.6001 9.14666 1.80766 9.59039 2.18559C9.98326 2.52049 10.4718 2.7229 10.9864 2.76399C11.5675 2.81043 12.1131 3.06236 12.5254 3.4746C12.9376 3.88684 13.1895 4.43244 13.236 5.01359C13.2768 5.52799 13.4792 6.01679 13.8144 6.40959C14.1923 6.85332 14.3999 7.41713 14.3999 7.99999C14.3999 8.58284 14.1923 9.14666 13.8144 9.59039C13.4795 9.98326 13.2771 10.4718 13.236 10.9864C13.1895 11.5675 12.9376 12.1131 12.5254 12.5254C12.1131 12.9376 11.5675 13.1895 10.9864 13.236C10.4718 13.2771 9.98326 13.4795 9.59039 13.8144C9.14666 14.1923 8.58284 14.3999 7.99999 14.3999C7.41713 14.3999 6.85332 14.1923 6.40959 13.8144C6.01672 13.4795 5.52819 13.2771 5.01359 13.236C4.43244 13.1895 3.88684 12.9376 3.4746 12.5254C3.06236 12.1131 2.81043 11.5675 2.76399 10.9864C2.7229 10.4718 2.52049 9.98326 2.18559 9.59039C1.80766 9.14666 1.6001 8.58284 1.6001 7.99999C1.6001 7.41713 1.80766 6.85332 2.18559 6.40959C2.52049 6.01672 2.7229 5.52819 2.76399 5.01359C2.81043 4.43244 3.06236 3.88684 3.4746 3.4746C3.88684 3.06236 4.43244 2.81043 5.01359 2.76399ZM10.9656 6.96559C11.1113 6.8147 11.1919 6.61262 11.1901 6.40286C11.1883 6.19311 11.1042 5.99246 10.9558 5.84413C10.8075 5.6958 10.6069 5.61167 10.3971 5.60985C10.1873 5.60802 9.98527 5.68866 9.83439 5.83439L7.19999 8.46879L6.16559 7.43439C6.0147 7.28866 5.81262 7.20802 5.60286 7.20985C5.39311 7.21167 5.19246 7.2958 5.04413 7.44413C4.8958 7.59246 4.81167 7.79311 4.80985 8.00286C4.80802 8.21262 4.88866 8.4147 5.03439 8.56559L6.63439 10.1656C6.78441 10.3156 6.98785 10.3998 7.19999 10.3998C7.41212 10.3998 7.61556 10.3156 7.76559 10.1656L10.9656 6.96559Z" fill="black"/>
</svg>
