<svg width="17" height="17" viewBox="0 0 17 17" fill="none" xmlns="http://www.w3.org/2000/svg">
<path fill-rule="evenodd" clip-rule="evenodd" d="M13.9712 4.47739C14.1211 4.62742 14.2054 4.83086 14.2054 5.04299C14.2054 5.25512 14.1211 5.45857 13.9712 5.60859L7.57115 12.0086C7.42113 12.1586 7.21768 12.2428 7.00555 12.2428C6.79342 12.2428 6.58997 12.1586 6.43995 12.0086L3.23995 8.80859C3.09422 8.65771 3.01359 8.45563 3.01541 8.24587C3.01723 8.03612 3.10137 7.83546 3.2497 7.68714C3.39802 7.53881 3.59867 7.45468 3.80843 7.45285C4.01819 7.45103 4.22027 7.53167 4.37115 7.67739L7.00555 10.3118L12.84 4.47739C12.99 4.32742 13.1934 4.24316 13.4056 4.24316C13.6177 4.24316 13.8211 4.32742 13.9712 4.47739Z" fill="black"/>
</svg>
